<svg width="2304" height="2304" viewBox="0 0 2304 2304" fill="none" xmlns="http://www.w3.org/2000/svg">
<g clip-path="url(#clip0_101_189)">
<path d="M1152.5 1152L1375.5 2274H929.498L1152.5 1152Z" fill="url(#paint0_linear_101_189)"/>
<path d="M1152 1151.5L2274 928.498L2274 1374.5L1152 1151.5Z" fill="url(#paint1_linear_101_189)"/>
<path d="M1151.5 1152L928.499 30L1374.5 30L1151.5 1152Z" fill="url(#paint2_linear_101_189)"/>
<path d="M1152 1151.5L30 1374.5L30 928.498L1152 1151.5Z" fill="url(#paint3_linear_101_189)"/>
<path d="M1152.35 1152.35L516.666 2103.41L201.294 1788.04L1152.35 1152.35Z" fill="url(#paint4_linear_101_189)"/>
<path d="M1152.35 1151.65L2103.41 1787.33L1788.04 2102.71L1152.35 1151.65Z" fill="url(#paint5_linear_101_189)"/>
<path d="M1151.65 1151.65L1787.33 200.587L2102.71 515.959L1151.65 1151.65Z" fill="url(#paint6_linear_101_189)"/>
<path d="M1152.35 1151.65L201.294 515.958L516.666 200.587L1152.35 1151.65Z" fill="url(#paint7_linear_101_189)"/>
<path d="M1159.86 704.562C1235.76 809.363 1505.36 1207.26 1406.86 1447.06C1404.36 1453.06 1401.66 1458.96 1398.76 1464.76C1401.66 1458.96 1404.36 1453.06 1406.86 1447.06C1505.36 1207.26 1235.76 809.363 1159.86 704.562C1158.76 703.163 1157.76 701.763 1156.76 700.463C1155.06 698.163 1153.46 696.062 1152.06 694.062C1152.06 693.962 1152.06 693.963 1152.06 693.963C1151.66 693.363 1151.16 692.762 1150.76 692.162C1150.76 692.062 1150.66 691.963 1150.66 691.963C1150.16 691.263 1149.66 690.663 1149.26 690.062C1148.06 688.462 1147.06 687.062 1146.06 685.762C1142.66 681.162 1140.66 678.663 1140.56 678.562C1139.96 678.562 820.062 1105.06 820.062 1282.06C820.062 1459.06 963.562 1602.56 1140.56 1602.56C1217.06 1602.56 1287.26 1575.76 1342.36 1531.06C1356.66 1519.46 1369.96 1506.66 1382.06 1492.76C1431.26 1436.36 1461.06 1362.66 1461.06 1282.06C1461.06 1131.26 1229.16 799.662 1159.86 704.562Z" fill="#00B6C4"/>
<path d="M1053.46 1395.96L1051.16 1394.06C984.862 1340.26 938.462 1265.86 919.262 1182.66L916.262 1169.66L941.562 1193.66C993.362 1242.96 1030.36 1305.86 1048.16 1375.06L1053.46 1395.96Z" fill="#083C66"/>
<path d="M987.563 1364.16C1009.87 1364.16 1027.96 1329.78 1027.96 1287.36C1027.96 1244.95 1009.87 1210.56 987.563 1210.56C965.25 1210.56 947.163 1244.95 947.163 1287.36C947.163 1329.78 965.25 1364.16 987.563 1364.16Z" fill="white"/>
<path d="M984.863 1354.16C1000.05 1354.16 1012.36 1330.08 1012.36 1300.36C1012.36 1270.65 1000.05 1246.56 984.863 1246.56C969.675 1246.56 957.363 1270.65 957.363 1300.36C957.363 1330.08 969.675 1354.16 984.863 1354.16Z" fill="#0F2603"/>
<path d="M1256.16 1364.16C1278.47 1364.16 1296.56 1329.78 1296.56 1287.36C1296.56 1244.95 1278.47 1210.56 1256.16 1210.56C1233.85 1210.56 1215.76 1244.95 1215.76 1287.36C1215.76 1329.78 1233.85 1364.16 1256.16 1364.16Z" fill="white"/>
<path d="M1251.86 1354.16C1267.05 1354.16 1279.36 1330.08 1279.36 1300.36C1279.36 1270.65 1267.05 1246.56 1251.86 1246.56C1236.67 1246.56 1224.36 1270.65 1224.36 1300.36C1224.36 1330.08 1236.67 1354.16 1251.86 1354.16Z" fill="#0F2603"/>
<path d="M1367.36 795.362C1366.86 795.862 1366.36 796.462 1365.86 797.062Z" fill="#7F5B53"/>
<path d="M1364.36 798.663C1363.86 799.163 1363.36 799.763 1362.86 800.363C1362.36 800.863 1361.86 801.463 1361.36 802.063" fill="#7F5B53"/>
<path d="M744.962 1242.86L713.362 1300.46C700.762 1336.36 698.362 1376.06 708.062 1414.96L864.162 1417.46C871.362 1417.56 876.762 1410.86 874.962 1403.86L819.862 1183.46L805.262 1191.56C781.362 1204.66 761.162 1222.36 744.962 1242.86Z" fill="#083C66"/>
<path d="M835.862 1337.76L733.262 1230.76C723.262 1220.26 706.062 1222.26 698.562 1234.66L684.662 1257.76C678.462 1268.16 681.762 1281.66 692.162 1287.86L713.262 1300.46L819.762 1364.36C816.962 1352.56 824.162 1340.66 835.862 1337.76Z" fill="#B6E2FF"/>
<path d="M846.605 1380.43C858.393 1377.48 865.562 1365.54 862.616 1353.75C859.671 1341.96 847.727 1334.79 835.939 1337.74C824.151 1340.68 816.982 1352.63 819.928 1364.42C822.873 1376.2 834.817 1383.37 846.605 1380.43Z" fill="#FFEE55"/>
<path d="M1523.56 1242.86C1507.46 1222.36 1487.16 1204.66 1463.26 1191.46L1448.66 1183.36L1393.56 1403.76C1391.86 1410.76 1397.16 1417.56 1404.36 1417.36L1560.46 1414.86C1570.16 1375.96 1567.76 1336.26 1555.16 1300.36L1523.56 1242.86Z" fill="#083C66"/>
<path d="M1448.66 1364.36L1555.16 1300.46L1576.26 1287.86C1586.66 1281.66 1590.06 1268.16 1583.76 1257.76L1569.86 1234.56C1562.36 1222.16 1545.16 1220.16 1535.16 1230.66L1432.56 1337.66C1444.46 1340.66 1451.56 1352.56 1448.66 1364.36Z" fill="#B6E2FF"/>
<path d="M1448.8 1364.41C1451.74 1352.62 1444.57 1340.67 1432.78 1337.73C1421 1334.78 1409.05 1341.95 1406.11 1353.74C1403.16 1365.53 1410.33 1377.47 1422.12 1380.42C1433.91 1383.36 1445.85 1376.19 1448.8 1364.41Z" fill="#FFEE55"/>
<path d="M881.763 1650.96C1047.66 1621.66 1014.76 1413.06 1007.26 1374.86C1006.66 1371.46 1003.56 1369.06 1000.16 1369.26C982.063 1369.96 925.563 1369.06 886.663 1333.36C883.863 1330.86 879.663 1330.86 876.963 1333.36C838.063 1369.06 781.563 1369.96 763.463 1369.16C759.963 1369.06 756.963 1371.46 756.363 1374.76C748.863 1413.06 715.863 1621.66 881.763 1650.96Z" fill="#FFB715"/>
<path d="M983.163 1503.76C979.763 1528.96 971.063 1553.16 957.263 1574.36C942.563 1595.86 920.863 1611.56 895.763 1618.66V1536.56C911.663 1531.86 923.963 1519.36 928.763 1503.56H983.163V1503.76Z" fill="#FC001F"/>
<path d="M986.363 1475.76C985.763 1485.16 984.763 1494.46 983.263 1503.76H928.863C931.663 1494.66 931.663 1484.86 928.863 1475.76H986.363Z" fill="#EFF6F7"/>
<path d="M986.363 1475.76H928.863C924.163 1459.86 911.663 1447.56 895.863 1442.76V1374.16C922.663 1388.36 952.463 1396.16 982.763 1397.06C986.463 1423.16 987.663 1449.46 986.363 1475.76Z" fill="#FC001F"/>
<path d="M895.763 1374.16V1442.76C886.663 1439.96 876.863 1439.96 867.763 1442.76V1374.16C872.563 1371.56 877.263 1368.56 881.863 1365.26C886.263 1368.46 890.963 1371.46 895.763 1374.16Z" fill="#EFF6F7"/>
<path d="M895.763 1536.76V1618.86C891.163 1620.26 886.463 1621.66 881.663 1622.46C876.963 1621.46 872.263 1620.26 867.563 1618.86V1536.76C876.863 1539.46 886.663 1539.46 895.763 1536.76Z" fill="#EFF6F7"/>
<path d="M867.763 1536.76V1618.86C842.663 1611.76 820.863 1596.06 806.263 1574.56C792.463 1553.26 783.563 1529.16 780.363 1503.96H834.763C839.563 1519.66 851.863 1531.96 867.763 1536.76Z" fill="#FC001F"/>
<path d="M867.763 1374.16V1442.76C851.863 1447.46 839.563 1459.96 834.763 1475.76H777.263C775.963 1449.56 777.163 1423.16 780.963 1397.16C811.263 1396.16 840.963 1388.26 867.763 1374.16Z" fill="#FC001F"/>
<path d="M930.863 1489.66C930.863 1494.46 930.163 1499.16 928.863 1503.76C924.163 1519.66 911.663 1531.96 895.863 1536.76C886.763 1539.56 876.963 1539.56 867.863 1536.76C851.963 1532.06 839.663 1519.56 834.863 1503.76C832.063 1494.66 832.063 1484.86 834.863 1475.76C839.563 1459.86 852.063 1447.56 867.863 1442.76C876.963 1439.96 886.763 1439.96 895.863 1442.76C911.763 1447.46 924.063 1459.96 928.863 1475.76C930.263 1480.26 930.863 1485.06 930.863 1489.66Z" fill="#FFB715"/>
<path d="M832.663 1489.66C832.663 1494.46 833.363 1499.16 834.663 1503.76H780.263C778.663 1494.46 777.763 1485.16 777.163 1475.76H834.663C833.363 1480.26 832.663 1485.06 832.663 1489.66Z" fill="#EFF6F7"/>
<path d="M974.262 1187.56C974.262 1187.56 986.262 1219.06 1018.76 1208.26" stroke="#231F20" stroke-width="8.0103" stroke-miterlimit="10" stroke-linecap="round" stroke-linejoin="round"/>
<path d="M1266.56 1187.56C1266.56 1187.56 1254.56 1219.06 1222.06 1208.26" stroke="#231F20" stroke-width="8.0103" stroke-miterlimit="10" stroke-linecap="round" stroke-linejoin="round"/>
<path d="M1349.66 1299.46L1367.06 1359.36L1406.66 1409.86C1418.66 1407.06 1432.76 1406.06 1447.16 1409.76C1455.16 1380.16 1442.26 1343.06 1433.56 1326.16C1424.76 1309.06 1397.76 1274.06 1373.26 1266.66C1367.96 1280.36 1358.86 1291.26 1349.66 1299.46Z" fill="#FFB715"/>
<path d="M1397.16 1391.46L1406.66 1409.86C1418.66 1407.06 1432.76 1406.06 1447.16 1409.76C1449.26 1401.86 1449.96 1393.36 1449.56 1384.96C1448.46 1384.76 1447.46 1384.66 1446.36 1384.56C1432.66 1383.26 1419.16 1385.16 1407.36 1388.26C1403.86 1389.16 1400.46 1390.26 1397.16 1391.46Z" fill="#FFB715"/>
<path d="M1380.46 1358.96C1378.16 1360.16 1375.36 1359.26 1374.16 1356.96C1372.96 1354.66 1373.86 1351.86 1376.16 1350.66L1426.96 1324.36C1429.26 1323.16 1432.06 1324.06 1433.26 1326.36C1434.46 1328.66 1433.56 1331.46 1431.26 1332.66L1380.46 1358.96Z" fill="#083C66"/>
<path d="M1367.46 1333.86C1365.66 1334.76 1363.46 1334.46 1361.96 1333.06C1360.16 1331.26 1360.06 1328.26 1361.96 1326.36L1399.76 1288.16C1401.56 1286.36 1404.56 1286.26 1406.46 1288.16C1408.26 1289.96 1408.36 1292.96 1406.46 1294.86L1368.66 1333.06C1368.36 1333.36 1367.86 1333.66 1367.46 1333.86Z" fill="#083C66"/>
<path d="M1446.36 1375.36C1445.96 1375.56 1445.46 1375.76 1444.96 1375.86L1391.96 1384.46C1389.36 1384.86 1386.96 1383.16 1386.56 1380.56C1386.16 1377.96 1387.86 1375.56 1390.46 1375.16L1443.46 1366.56C1446.06 1366.16 1448.46 1367.86 1448.86 1370.46C1449.26 1372.46 1448.16 1374.46 1446.36 1375.36Z" fill="#083C66"/>
<path d="M1470.36 1420.06C1499.56 1369.46 1436.36 1247.16 1378.26 1241.66C1377.96 1250.86 1376.16 1259.06 1373.26 1266.56C1402.16 1284.66 1420.16 1311.36 1428.96 1328.46C1437.66 1345.36 1449.96 1379.86 1447.16 1409.66C1454.96 1411.66 1462.76 1414.96 1470.36 1420.06Z" fill="#EFF6F7"/>
<path d="M1449.66 1384.86C1450.06 1393.36 1449.36 1401.76 1447.26 1409.66C1454.96 1411.66 1462.76 1414.96 1470.36 1420.06C1474.66 1412.66 1476.86 1403.76 1477.56 1393.96C1469.66 1389.56 1461.46 1386.86 1453.26 1385.36C1452.06 1385.16 1450.86 1384.96 1449.66 1384.86Z" fill="#EFF6F7"/>
<path d="M1384.96 1464.06L1358.36 1461.26L1348.06 1483.06L1432.26 1645.76C1432.76 1646.66 1433.86 1647.06 1434.76 1646.56L1468.26 1629.26C1469.16 1628.76 1469.56 1627.66 1469.06 1626.76L1384.96 1464.06Z" fill="#967471"/>
<path d="M1337.76 1417.76L1322.96 1449.56L1338.76 1480.06C1340.56 1483.46 1344.76 1484.76 1348.16 1483.06L1385.06 1464.06C1388.46 1462.26 1389.86 1458.06 1388.06 1454.66L1372.26 1424.16L1337.76 1417.76Z" fill="#FFB715"/>
<path d="M1193.86 1359.16C1186.06 1383.26 1198.66 1425.76 1207.46 1442.86C1216.16 1459.76 1233.66 1489.96 1267.76 1502.36C1273.06 1488.46 1282.06 1477.56 1291.36 1469.46L1270.56 1410.26L1234.26 1359.06C1222.36 1361.76 1208.26 1362.86 1193.86 1359.16Z" fill="#FFB715"/>
<path d="M1247.56 1487.16C1253.76 1492.96 1260.56 1498.26 1267.66 1502.36C1272.96 1488.46 1281.96 1477.56 1291.26 1469.46L1281.76 1451.06C1278.96 1453.06 1276.06 1455.16 1273.16 1457.56C1263.86 1465.26 1254.46 1475.16 1247.56 1487.16Z" fill="#FFB715"/>
<path d="M1349.66 1299.46C1342.46 1305.86 1335.16 1310.46 1329.36 1313.56C1327.86 1314.36 1313.16 1321.96 1311.96 1322.56L1320.56 1384.46L1366.06 1427.36L1372.26 1424.16L1383.46 1418.36C1389.26 1415.36 1397.36 1412.06 1406.66 1409.86L1349.66 1299.46Z" fill="#967471"/>
<path d="M1265.06 1418.46L1214.26 1444.56C1211.96 1445.76 1209.16 1444.86 1207.96 1442.56C1206.76 1440.26 1207.66 1437.46 1209.96 1436.26L1260.76 1410.16C1263.06 1408.96 1265.86 1409.86 1267.06 1412.16C1268.26 1414.46 1267.36 1417.26 1265.06 1418.46Z" fill="#083C66"/>
<path d="M1252.06 1393.46C1251.66 1393.66 1251.16 1393.86 1250.66 1393.96L1197.66 1402.56C1195.06 1402.96 1192.66 1401.26 1192.26 1398.66C1191.86 1396.06 1193.56 1393.66 1196.16 1393.26L1249.16 1384.66C1251.76 1384.26 1254.16 1385.96 1254.56 1388.56C1254.96 1390.56 1253.86 1392.56 1252.06 1393.46Z" fill="#083C66"/>
<path d="M1240.26 1481.76C1238.46 1482.66 1236.26 1482.36 1234.76 1480.96C1232.96 1479.16 1232.86 1476.16 1234.76 1474.26L1272.56 1436.06C1274.36 1434.26 1277.36 1434.16 1279.26 1436.06C1281.06 1437.86 1281.16 1440.86 1279.26 1442.76L1241.46 1480.96C1241.06 1481.26 1240.66 1481.56 1240.26 1481.76Z" fill="#083C66"/>
<path d="M1350.06 1454.86C1357.46 1451.06 1361.06 1447.76 1364.96 1455.36L1369.46 1464.16C1371.26 1467.56 1369.86 1471.76 1366.46 1473.56L1384.86 1464.06C1388.26 1462.26 1389.66 1458.06 1387.86 1454.66L1372.06 1424.16L1365.86 1427.36L1328.96 1446.36L1322.76 1449.56L1330.66 1464.86L1350.06 1454.86Z" fill="#FFB715"/>
<path d="M1384.96 1464.06L1469.16 1626.76C1469.66 1627.66 1469.26 1628.86 1468.36 1629.26L1451.56 1637.96L1380.46 1500.56C1377.66 1495.06 1377.06 1491.56 1371.76 1494.26L1357.56 1501.56L1347.96 1483.06L1384.96 1464.06Z" fill="#967471"/>
<path d="M1212.06 1440.46C1203.26 1423.36 1191.86 1393.26 1193.86 1359.16C1186.16 1357.26 1178.36 1353.96 1170.76 1348.86C1141.56 1399.46 1204.76 1521.76 1262.86 1527.26C1263.16 1518.06 1264.96 1509.86 1267.76 1502.36C1241.76 1487.36 1220.76 1457.36 1212.06 1440.46Z" fill="#EFF6F7"/>
<path d="M1237.36 1517.96C1245.76 1523.16 1254.36 1526.46 1262.76 1527.26C1263.06 1518.06 1264.86 1509.86 1267.66 1502.36C1260.56 1498.26 1253.76 1492.96 1247.56 1487.16C1246.46 1489.16 1245.36 1491.16 1244.36 1493.16C1240.86 1500.66 1238.36 1508.96 1237.36 1517.96Z" fill="#EFF6F7"/>
<path d="M1275.06 1341.56L1299.26 1343.26L1311.96 1322.56L1304.16 1307.46C1299.86 1299.16 1289.56 1295.86 1281.26 1300.16L1274.56 1303.56C1266.26 1307.86 1262.96 1318.16 1267.26 1326.46L1275.06 1341.56Z" fill="#FFB715"/>
<path d="M1275.06 1341.56C1273.86 1342.26 1259.16 1349.86 1257.66 1350.56C1251.76 1353.46 1243.76 1356.76 1234.36 1358.96L1262.96 1414.26L1281.86 1450.96L1291.36 1469.36C1292.26 1468.56 1293.16 1467.76 1294.06 1467.06C1298.56 1463.36 1303.06 1460.26 1307.06 1457.96C1308.66 1456.96 1310.26 1456.16 1311.66 1455.36L1322.86 1449.56L1329.06 1446.36L1308.26 1390.76L1275.06 1341.56Z" fill="#967471"/>
<path d="M1338.96 1374.96L1311.96 1322.56L1275.06 1341.56L1302.06 1393.96L1329.06 1446.36L1365.96 1427.36L1338.96 1374.96Z" fill="#EFF6F7"/>
<path d="M1290.66 1419.16L1290.46 1419.26C1288.16 1420.46 1285.36 1419.56 1284.16 1417.26C1282.96 1414.96 1283.86 1412.16 1286.16 1410.96L1286.36 1410.86C1288.66 1409.66 1291.46 1410.56 1292.66 1412.86C1293.86 1415.16 1292.96 1417.96 1290.66 1419.16Z" fill="#00A863"/>
<path d="M1279.16 1396.96L1278.96 1397.06C1276.66 1398.26 1273.86 1397.36 1272.66 1395.06C1271.46 1392.76 1272.36 1389.96 1274.66 1388.76L1274.86 1388.66C1277.16 1387.46 1279.96 1388.36 1281.16 1390.66C1282.36 1392.86 1281.46 1395.76 1279.16 1396.96Z" fill="#FC001F"/>
<path d="M1302.36 1441.36L1302.16 1441.46C1299.86 1442.66 1297.06 1441.76 1295.86 1439.46C1294.66 1437.16 1295.56 1434.36 1297.86 1433.16L1298.06 1433.06C1300.36 1431.86 1303.16 1432.76 1304.36 1435.06C1305.56 1437.36 1304.66 1440.16 1302.36 1441.36Z" fill="#FC001F"/>
<path d="M1267.66 1374.66L1267.46 1374.76C1265.16 1375.96 1262.36 1375.06 1261.16 1372.76C1259.96 1370.46 1260.86 1367.66 1263.16 1366.46L1263.36 1366.36C1265.66 1365.16 1268.46 1366.06 1269.66 1368.36C1270.86 1370.56 1269.96 1373.46 1267.66 1374.66Z" fill="#00A863"/>
<path d="M1366.36 1380.06L1366.16 1380.16C1363.86 1381.36 1361.06 1380.46 1359.86 1378.16C1358.66 1375.86 1359.56 1373.06 1361.86 1371.86L1362.06 1371.76C1364.36 1370.56 1367.16 1371.46 1368.36 1373.76C1369.56 1376.06 1368.66 1378.86 1366.36 1380.06Z" fill="#00A863"/>
<path d="M1354.86 1357.76L1354.66 1357.86C1352.36 1359.06 1349.56 1358.16 1348.36 1355.86C1347.16 1353.56 1348.06 1350.76 1350.36 1349.56L1350.56 1349.46C1352.86 1348.26 1355.66 1349.16 1356.86 1351.46C1358.06 1353.76 1357.16 1356.66 1354.86 1357.76Z" fill="#FC001F"/>
<path d="M1377.66 1402.46L1377.46 1402.56C1375.16 1403.76 1372.36 1402.86 1371.16 1400.56C1369.96 1398.26 1370.86 1395.46 1373.16 1394.26L1373.36 1394.16C1375.66 1392.96 1378.46 1393.86 1379.66 1396.16C1380.86 1398.46 1379.96 1401.26 1377.66 1402.46Z" fill="#FC001F"/>
<path d="M1343.36 1335.56L1343.16 1335.66C1340.86 1336.86 1338.06 1335.96 1336.86 1333.66C1335.66 1331.36 1336.56 1328.56 1338.86 1327.36L1339.06 1327.26C1341.36 1326.06 1344.16 1326.96 1345.36 1329.26C1346.56 1331.46 1345.66 1334.36 1343.36 1335.56Z" fill="#00A863"/>
<path d="M1320.46 1429.66L1357.36 1410.66L1365.96 1427.36L1329.06 1446.36L1320.46 1429.66Z" fill="#EFF6F7"/>
<path d="M1268.36 1328.66L1305.26 1309.66L1311.86 1322.56L1274.96 1341.56L1268.36 1328.66Z" fill="#FFB715"/>
<path d="M1265.66 1364.76L1260.56 1367.36L1260.26 1373.16L1265.06 1376.26L1270.16 1373.56L1270.46 1367.86L1265.66 1364.76Z" fill="#00A863"/>
<path d="M1277.16 1387.06L1272.06 1389.66L1271.76 1395.46L1276.56 1398.56L1281.66 1395.86L1281.96 1390.16L1277.16 1387.06Z" fill="#FC001F"/>
<path d="M1300.16 1431.66L1295.06 1434.26L1294.76 1439.96L1299.56 1443.06L1304.66 1440.46L1304.96 1434.76L1300.16 1431.66Z" fill="#FC001F"/>
<path d="M1352.86 1347.96L1347.76 1350.56L1347.56 1356.36L1352.36 1359.36L1357.46 1356.76L1357.76 1351.06L1352.86 1347.96Z" fill="#FC001F"/>
<path d="M1375.86 1392.56L1370.76 1395.16L1370.56 1400.86L1375.36 1403.96L1380.46 1401.36L1380.76 1395.66L1375.86 1392.56Z" fill="#FC001F"/>
<path d="M1341.36 1325.66L1336.26 1328.26L1336.06 1334.06L1340.86 1337.16L1345.96 1334.46L1346.16 1328.76L1341.36 1325.66Z" fill="#00A863"/>
<path d="M1364.36 1370.26L1359.26 1372.86L1359.06 1378.56L1363.86 1381.66L1368.96 1379.06L1369.26 1373.36L1364.36 1370.26Z" fill="#00A863"/>
<path d="M1288.66 1409.36L1283.56 1411.96L1283.26 1417.66L1288.06 1420.76L1293.16 1418.16L1293.46 1412.46L1288.66 1409.36Z" fill="#00A863"/>
<path d="M1537.2 1058.77C1543.99 1108.07 1521.47 1153.38 1485.13 1170.62L1485.62 1174.16L1462.82 1177.29L1462.23 1177.37C1413.36 1183.59 1367.41 1141.47 1359.53 1082.92C1351.65 1024.36 1384.53 971.526 1433.29 964.547L1433.92 964.461L1456.72 961.323L1457.21 964.883C1496.87 971.746 1530.5 1009.43 1537.2 1058.77Z" fill="#F29200"/>
<path d="M1562.42 1055.34C1554.43 996.572 1506.09 954.629 1454.46 961.653C1402.84 968.676 1367.46 1022.01 1375.46 1080.77C1383.45 1139.54 1431.79 1181.48 1483.42 1174.46C1535.04 1167.43 1570.42 1114.1 1562.42 1055.34Z" fill="#FFD130"/>
<path d="M1548.87 1057.18C1542.14 1007.69 1501.44 972.377 1457.97 978.291C1414.5 984.206 1384.71 1029.11 1391.44 1078.59C1398.17 1128.08 1438.87 1163.39 1482.35 1157.48C1525.82 1151.57 1555.61 1106.66 1548.87 1057.18Z" fill="#FABA02"/>
<path d="M1548.89 1057.19C1555.7 1106.66 1525.82 1151.57 1482.35 1157.48C1480.5 1157.74 1478.64 1157.91 1476.78 1158.01C1517.25 1149.23 1544.26 1106.05 1537.81 1058.69C1531.36 1011.33 1493.82 976.922 1452.48 979.249C1454.3 978.852 1456.14 978.525 1457.99 978.27C1501.38 972.387 1542.16 1007.7 1548.89 1057.19Z" fill="#F29200"/>
<path d="M1481.12 1094.21C1481.31 1096.49 1482.34 1098.62 1484.02 1100.18C1485.53 1101.54 1487.29 1102.6 1489.2 1103.29C1490.92 1103.93 1492.71 1104.34 1494.53 1104.53C1496.21 1104.7 1497.3 1104.77 1497.81 1104.76C1498.22 1104.78 1498.62 1104.92 1498.95 1105.18C1499.07 1105.28 1499.17 1105.4 1499.23 1105.55C1499.29 1105.69 1499.32 1105.84 1499.31 1106C1499.27 1106.32 1499.12 1106.62 1498.89 1106.85C1498.59 1107.15 1498.19 1107.33 1497.77 1107.36L1443.28 1114.86C1442.86 1114.94 1442.43 1114.88 1442.06 1114.67C1441.77 1114.51 1441.55 1114.26 1441.43 1113.96C1441.38 1113.82 1441.37 1113.67 1441.39 1113.52C1441.41 1113.37 1441.47 1113.23 1441.55 1113.1C1441.8 1112.77 1442.16 1112.51 1442.56 1112.39C1443.06 1112.32 1444.09 1111.89 1445.66 1111.3C1447.36 1110.56 1448.96 1109.6 1450.43 1108.45C1452.08 1107.28 1453.5 1105.79 1454.6 1104.08C1455.83 1102.14 1456.3 1099.81 1455.91 1097.55L1450.74 1059.92C1450.65 1059.06 1450.27 1058.25 1449.65 1057.65C1449.02 1057.04 1448.21 1056.68 1447.34 1056.63C1447.15 1056.66 1446.41 1056.62 1445.11 1056.54L1441.04 1056.37L1436.93 1056.2C1435.66 1056.18 1434.93 1056.13 1434.7 1056.11C1433.88 1056.05 1433.42 1055.76 1433.35 1055.26C1433.28 1054.76 1433.65 1054.22 1434.45 1053.63C1437.66 1051.46 1440.83 1049.13 1443.95 1046.65C1447.08 1044.17 1450.11 1041.64 1453.04 1039.05C1455.97 1036.42 1458.75 1033.76 1461.39 1031.07C1464.02 1028.38 1466.48 1025.75 1468.75 1023.18C1468.94 1022.93 1469.18 1022.73 1469.47 1022.6C1469.75 1022.46 1470.06 1022.4 1470.37 1022.42C1471.02 1022.47 1471.39 1022.88 1471.5 1023.71L1481.12 1094.21Z" fill="#F29200"/>
<path d="M1488.08 1088.69C1488.27 1090.88 1489.22 1092.94 1490.78 1094.49C1492.18 1095.82 1493.82 1096.85 1495.62 1097.54C1497.18 1098.17 1498.81 1098.59 1500.48 1098.8C1502.01 1098.97 1503.02 1099.05 1503.48 1099.05C1503.87 1099.07 1504.24 1099.22 1504.54 1099.48C1504.64 1099.58 1504.73 1099.7 1504.79 1099.83C1504.84 1099.96 1504.87 1100.11 1504.86 1100.25C1504.83 1100.56 1504.7 1100.85 1504.49 1101.08C1504.23 1101.37 1503.86 1101.54 1503.48 1101.57L1453.76 1108.42C1453.38 1108.49 1452.98 1108.42 1452.65 1108.22C1452.39 1108.05 1452.19 1107.81 1452.09 1107.52C1452.04 1107.38 1452.03 1107.23 1452.05 1107.09C1452.07 1106.95 1452.12 1106.81 1452.19 1106.68C1452.41 1106.36 1452.72 1106.11 1453.09 1105.99C1453.55 1105.92 1454.47 1105.53 1455.92 1104.96C1457.48 1104.32 1458.94 1103.48 1460.28 1102.45C1461.83 1101.31 1463.13 1099.87 1464.13 1098.23C1465.21 1096.31 1465.58 1094.08 1465.18 1091.91L1460.15 1055.35C1460.09 1054.53 1459.74 1053.76 1459.16 1053.17C1458.59 1052.59 1457.82 1052.22 1457.01 1052.14C1456.85 1052.16 1456.19 1052.11 1455.04 1052.01L1451.32 1051.81L1447.56 1051.62C1446.4 1051.58 1445.73 1051.54 1445.55 1051.5C1444.79 1051.43 1444.37 1051.15 1444.31 1050.68C1444.24 1050.2 1444.57 1049.67 1445.31 1049.1C1448.22 1047.02 1451.09 1044.79 1453.92 1042.41C1456.75 1040.03 1459.48 1037.56 1462.13 1035.02C1464.73 1032.49 1467.25 1029.93 1469.7 1027.34C1472.14 1024.74 1474.37 1022.23 1476.38 1019.78C1476.54 1019.55 1476.76 1019.35 1477.02 1019.23C1477.28 1019.11 1477.56 1019.05 1477.85 1019.07C1478.45 1019.1 1478.78 1019.52 1478.89 1020.32L1488.08 1088.69Z" fill="#FABA02"/>
<path d="M841.763 811.429C835.724 830.265 819.868 842.632 803.883 842.566L803.45 843.917L794.741 841.125L794.517 841.054C775.934 834.885 766.704 811.895 773.939 789.556C781.174 767.217 802.035 753.929 820.712 759.807L820.953 759.884L829.661 762.677L829.225 764.037C842.258 773.31 847.837 792.596 841.763 811.429Z" fill="#F29200"/>
<path d="M851.391 814.531C858.622 792.097 848.507 768.761 828.797 762.407C809.088 756.054 787.248 769.09 780.016 791.523C772.785 813.957 782.9 837.293 802.61 843.647C822.319 850 844.159 836.964 851.391 814.531Z" fill="#FFD130"/>
<path d="M846.219 812.863C852.308 793.973 843.79 774.322 827.194 768.973C810.598 763.623 792.207 774.599 786.118 793.489C780.029 812.379 788.547 832.03 805.143 837.379C821.74 842.729 840.13 831.753 846.219 812.863Z" fill="#FABA02"/>
<path d="M846.222 812.868C840.162 831.77 821.739 842.73 805.143 837.381C804.435 837.154 803.74 836.898 803.057 836.612C819.069 840.419 836.17 829.585 841.995 811.504C847.819 793.423 840.277 774.641 825.063 768.374C825.783 768.543 826.497 768.742 827.205 768.969C843.766 774.315 852.315 793.977 846.222 812.868Z" fill="#F29200"/>
<path d="M815.573 814.493C815.251 815.344 815.255 816.284 815.587 817.131C815.896 817.878 816.345 818.559 816.91 819.138C817.416 819.66 817.986 820.116 818.606 820.496C819.18 820.844 819.559 821.058 819.742 821.144C819.889 821.22 820.007 821.341 820.08 821.49C820.106 821.545 820.118 821.606 820.116 821.668C820.114 821.729 820.097 821.789 820.067 821.842C819.998 821.952 819.894 822.034 819.772 822.077C819.613 822.132 819.439 822.128 819.282 822.066L798.464 815.392C798.3 815.351 798.157 815.253 798.059 815.116C797.984 815.01 797.948 814.882 797.955 814.753C797.963 814.694 797.984 814.637 798.018 814.587C798.051 814.538 798.096 814.497 798.148 814.467C798.296 814.389 798.466 814.36 798.632 814.385C798.822 814.446 799.263 814.468 799.931 814.527C800.668 814.553 801.406 814.485 802.126 814.325C802.923 814.187 803.687 813.898 804.375 813.473C805.15 812.99 805.718 812.237 805.968 811.358L810.576 796.985C810.696 796.662 810.696 796.306 810.576 795.983C810.457 795.66 810.226 795.39 809.925 795.221C809.853 795.198 809.593 795.06 809.143 794.806L807.713 794.046L806.267 793.28C805.818 793.054 805.563 792.908 805.485 792.865C805.2 792.7 805.085 792.517 805.146 792.326C805.207 792.136 805.431 792.006 805.822 791.93C807.345 791.705 808.88 791.417 810.425 791.065C811.971 790.713 813.492 790.325 814.987 789.902C816.488 789.463 817.942 788.987 819.35 788.475C820.758 787.963 822.09 787.442 823.346 786.911C823.455 786.854 823.578 786.824 823.702 786.826C823.826 786.827 823.948 786.859 824.056 786.92C824.281 787.047 824.341 787.258 824.24 787.573L815.573 814.493Z" fill="#F29200"/>
<path d="M819.015 813.712C818.708 814.53 818.698 815.43 818.986 816.255C819.261 816.97 819.673 817.624 820.198 818.18C820.649 818.673 821.163 819.105 821.725 819.465C822.244 819.787 822.591 819.99 822.757 820.071C822.893 820.145 823 820.263 823.061 820.406C823.083 820.459 823.093 820.517 823.091 820.574C823.088 820.632 823.073 820.688 823.046 820.739C822.982 820.845 822.885 820.927 822.77 820.971C822.626 821.028 822.466 821.029 822.321 820.974L803.328 814.884C803.178 814.845 803.048 814.751 802.964 814.621C802.9 814.518 802.872 814.396 802.883 814.275C802.891 814.218 802.911 814.163 802.942 814.115C802.974 814.066 803.015 814.025 803.064 813.995C803.197 813.914 803.353 813.881 803.507 813.899C803.681 813.955 804.078 813.972 804.695 814.015C805.364 814.053 806.035 814.004 806.691 813.868C807.44 813.723 808.155 813.433 808.793 813.014C809.511 812.513 810.029 811.776 810.257 810.932L814.735 796.965C814.853 796.66 814.86 796.324 814.755 796.014C814.651 795.705 814.441 795.442 814.162 795.272C814.101 795.252 813.874 795.125 813.48 794.889L812.18 794.179L810.863 793.464C810.456 793.251 810.223 793.122 810.165 793.076C809.904 792.919 809.803 792.749 809.861 792.567C809.92 792.384 810.128 792.25 810.49 792.174C811.892 791.928 813.305 791.622 814.727 791.255C816.15 790.888 817.553 790.475 818.938 790.017C820.305 789.558 821.649 789.075 822.971 788.565C824.292 788.056 825.523 787.536 826.663 787.005C826.762 786.948 826.874 786.918 826.988 786.918C827.102 786.917 827.214 786.947 827.313 787.003C827.524 787.117 827.567 787.323 827.469 787.63L819.015 813.712Z" fill="#FABA02"/>
<path d="M1165.76 415.469C1170.41 434.695 1163.31 453.508 1149.63 461.772L1149.96 463.152L1141.07 465.301L1140.84 465.357C1121.77 469.764 1101.92 454.939 1096.47 432.099C1091.02 409.258 1101.91 387.054 1120.92 382.351L1121.16 382.291L1130.05 380.142L1130.39 381.53C1146.34 382.663 1161.15 396.226 1165.76 415.469Z" fill="#F29200"/>
<path d="M1175.6 413.105C1170.1 390.186 1149.31 375.527 1129.17 380.362C1109.04 385.197 1097.18 407.696 1102.68 430.615C1108.18 453.534 1128.97 468.194 1149.1 463.358C1169.24 458.523 1181.1 436.024 1175.6 413.105Z" fill="#FFD130"/>
<path d="M1170.31 414.373C1165.68 395.075 1148.18 382.731 1131.22 386.802C1114.27 390.874 1104.28 409.819 1108.91 429.117C1113.55 448.416 1131.05 460.76 1148.01 456.688C1164.96 452.617 1174.95 433.672 1170.31 414.373Z" fill="#FABA02"/>
<path d="M1170.32 414.376C1174.99 433.67 1164.96 452.617 1148.01 456.69C1147.28 456.865 1146.56 457.008 1145.82 457.119C1161.48 452.035 1170.44 433.882 1166 415.412C1161.56 396.942 1145.34 384.832 1129.09 387.4C1129.8 387.17 1130.51 386.968 1131.23 386.793C1148.15 382.737 1165.69 395.074 1170.32 414.376Z" fill="#F29200"/>
<path d="M1145 431.718C1145.16 432.612 1145.66 433.412 1146.38 433.964C1147.03 434.44 1147.77 434.788 1148.56 434.988C1149.26 435.17 1149.98 435.263 1150.71 435.265C1151.38 435.264 1151.82 435.248 1152.02 435.226C1152.18 435.215 1152.35 435.257 1152.49 435.346C1152.54 435.38 1152.58 435.425 1152.61 435.479C1152.64 435.532 1152.66 435.592 1152.66 435.654C1152.66 435.783 1152.61 435.908 1152.53 436.008C1152.42 436.138 1152.27 436.225 1152.11 436.254L1130.86 441.391C1130.7 441.442 1130.52 441.433 1130.37 441.367C1130.25 441.315 1130.15 441.225 1130.09 441.111C1130.07 441.056 1130.05 440.997 1130.06 440.937C1130.06 440.877 1130.08 440.819 1130.11 440.767C1130.19 440.622 1130.32 440.509 1130.48 440.444C1130.67 440.397 1131.06 440.187 1131.66 439.889C1132.3 439.528 1132.9 439.086 1133.43 438.574C1134.04 438.042 1134.54 437.397 1134.9 436.676C1135.32 435.861 1135.41 434.921 1135.16 434.042L1131.62 419.37C1131.55 419.032 1131.37 418.729 1131.1 418.515C1130.82 418.301 1130.49 418.19 1130.14 418.203C1130.07 418.221 1129.77 418.239 1129.26 418.256L1127.64 418.351L1126.01 418.45C1125.51 418.491 1125.21 418.499 1125.13 418.503C1124.8 418.511 1124.6 418.414 1124.55 418.219C1124.51 418.025 1124.63 417.797 1124.93 417.529C1126.11 416.544 1127.27 415.499 1128.41 414.394C1129.54 413.289 1130.64 412.166 1131.7 411.027C1132.75 409.87 1133.74 408.707 1134.68 407.537C1135.61 406.367 1136.48 405.228 1137.28 404.122C1137.34 404.015 1137.43 403.927 1137.54 403.863C1137.64 403.8 1137.76 403.764 1137.89 403.759C1138.14 403.75 1138.31 403.9 1138.38 404.221L1145 431.718Z" fill="#F29200"/>
<path d="M1147.53 429.259C1147.69 430.118 1148.15 430.891 1148.83 431.445C1149.43 431.912 1150.13 432.257 1150.87 432.458C1151.51 432.645 1152.17 432.746 1152.84 432.761C1153.45 432.765 1153.85 432.758 1154.03 432.74C1154.19 432.734 1154.34 432.779 1154.47 432.868C1154.51 432.902 1154.55 432.946 1154.58 432.997C1154.61 433.047 1154.63 433.104 1154.63 433.161C1154.63 433.284 1154.59 433.404 1154.51 433.502C1154.42 433.626 1154.28 433.71 1154.13 433.738L1134.75 438.426C1134.6 438.471 1134.44 438.458 1134.3 438.391C1134.19 438.336 1134.1 438.247 1134.05 438.137C1134.03 438.084 1134.01 438.027 1134.02 437.969C1134.02 437.912 1134.03 437.855 1134.06 437.804C1134.13 437.666 1134.24 437.556 1134.38 437.491C1134.56 437.448 1134.91 437.257 1135.46 436.972C1136.05 436.657 1136.6 436.265 1137.09 435.808C1137.65 435.294 1138.11 434.674 1138.44 433.984C1138.79 433.183 1138.85 432.284 1138.6 431.444L1135.16 417.188C1135.1 416.866 1134.93 416.575 1134.68 416.366C1134.43 416.156 1134.11 416.041 1133.79 416.041C1133.72 416.056 1133.46 416.065 1133 416.068L1131.53 416.139L1130.03 416.214C1129.57 416.245 1129.3 416.255 1129.23 416.246C1128.93 416.248 1128.75 416.156 1128.71 415.97C1128.66 415.783 1128.77 415.56 1129.04 415.307C1130.11 414.367 1131.15 413.371 1132.18 412.317C1133.2 411.263 1134.19 410.18 1135.13 409.067C1136.06 407.965 1136.95 406.852 1137.82 405.729C1138.68 404.606 1139.46 403.522 1140.16 402.475C1140.21 402.375 1140.29 402.291 1140.39 402.231C1140.49 402.171 1140.6 402.138 1140.71 402.135C1140.95 402.122 1141.09 402.275 1141.17 402.588L1147.53 429.259Z" fill="#FABA02"/>
<path d="M1428.44 1833.45C1433.09 1852.68 1425.99 1871.49 1412.31 1879.75L1412.64 1881.13L1403.75 1883.28L1403.52 1883.34C1384.44 1887.75 1364.6 1872.92 1359.14 1850.08C1353.69 1827.24 1364.59 1805.04 1383.6 1800.33L1383.84 1800.27L1392.73 1798.12L1393.07 1799.51C1409.02 1800.65 1423.82 1814.21 1428.44 1833.45Z" fill="#F29200"/>
<path d="M1438.28 1831.09C1432.77 1808.17 1411.99 1793.51 1391.85 1798.34C1371.72 1803.18 1359.85 1825.68 1365.36 1848.6C1370.86 1871.52 1391.65 1886.18 1411.78 1881.34C1431.92 1876.5 1443.78 1854.01 1438.28 1831.09Z" fill="#FFD130"/>
<path d="M1432.99 1832.36C1428.36 1813.06 1410.86 1800.71 1393.9 1804.78C1376.95 1808.86 1366.96 1827.8 1371.59 1847.1C1376.23 1866.4 1393.73 1878.74 1410.68 1874.67C1427.64 1870.6 1437.63 1851.65 1432.99 1832.36Z" fill="#FABA02"/>
<path d="M1433 1832.36C1437.66 1851.65 1427.64 1870.6 1410.68 1874.67C1409.96 1874.85 1409.23 1874.99 1408.5 1875.1C1424.15 1870.02 1433.12 1851.86 1428.68 1833.39C1424.24 1814.92 1408.02 1802.81 1391.77 1805.38C1392.47 1805.15 1393.19 1804.95 1393.91 1804.77C1410.83 1800.72 1428.37 1813.06 1433 1832.36Z" fill="#F29200"/>
<path d="M1407.67 1849.7C1407.84 1850.59 1408.34 1851.39 1409.06 1851.95C1409.71 1852.42 1410.45 1852.77 1411.23 1852.97C1411.94 1853.15 1412.66 1853.24 1413.39 1853.25C1414.06 1853.25 1414.5 1853.23 1414.7 1853.21C1414.86 1853.2 1415.02 1853.24 1415.16 1853.33C1415.22 1853.36 1415.26 1853.41 1415.29 1853.46C1415.32 1853.51 1415.33 1853.57 1415.34 1853.64C1415.33 1853.76 1415.29 1853.89 1415.21 1853.99C1415.1 1854.12 1414.95 1854.21 1414.78 1854.24L1393.53 1859.37C1393.37 1859.42 1393.2 1859.42 1393.04 1859.35C1392.93 1859.3 1392.83 1859.21 1392.77 1859.09C1392.74 1859.04 1392.73 1858.98 1392.73 1858.92C1392.74 1858.86 1392.75 1858.8 1392.78 1858.75C1392.87 1858.6 1393 1858.49 1393.15 1858.43C1393.35 1858.38 1393.74 1858.17 1394.34 1857.87C1394.98 1857.51 1395.57 1857.07 1396.11 1856.56C1396.71 1856.02 1397.22 1855.38 1397.58 1854.66C1397.99 1853.84 1398.08 1852.9 1397.84 1852.02L1394.29 1837.35C1394.23 1837.01 1394.04 1836.71 1393.77 1836.5C1393.5 1836.28 1393.16 1836.17 1392.82 1836.19C1392.75 1836.2 1392.45 1836.22 1391.94 1836.24L1390.32 1836.33L1388.69 1836.43C1388.18 1836.47 1387.89 1836.48 1387.8 1836.48C1387.47 1836.49 1387.28 1836.4 1387.23 1836.2C1387.19 1836.01 1387.31 1835.78 1387.6 1835.51C1388.79 1834.53 1389.95 1833.48 1391.08 1832.38C1392.22 1831.27 1393.32 1830.15 1394.37 1829.01C1395.43 1827.85 1396.42 1826.69 1397.36 1825.52C1398.29 1824.35 1399.16 1823.21 1399.95 1822.1C1400.02 1822 1400.11 1821.91 1400.21 1821.85C1400.32 1821.78 1400.44 1821.75 1400.56 1821.74C1400.82 1821.73 1400.98 1821.88 1401.06 1822.2L1407.67 1849.7Z" fill="#F29200"/>
<path d="M1410.21 1847.24C1410.37 1848.1 1410.83 1848.87 1411.51 1849.43C1412.11 1849.89 1412.8 1850.24 1413.54 1850.44C1414.18 1850.63 1414.85 1850.73 1415.52 1850.74C1416.13 1850.75 1416.53 1850.74 1416.71 1850.72C1416.87 1850.72 1417.02 1850.76 1417.15 1850.85C1417.19 1850.88 1417.23 1850.93 1417.26 1850.98C1417.29 1851.03 1417.3 1851.09 1417.31 1851.14C1417.31 1851.27 1417.27 1851.39 1417.19 1851.48C1417.1 1851.61 1416.96 1851.69 1416.81 1851.72L1397.42 1856.41C1397.27 1856.45 1397.11 1856.44 1396.98 1856.37C1396.87 1856.32 1396.78 1856.23 1396.73 1856.12C1396.7 1856.07 1396.69 1856.01 1396.69 1855.95C1396.69 1855.89 1396.71 1855.84 1396.73 1855.79C1396.81 1855.65 1396.92 1855.54 1397.06 1855.47C1397.24 1855.43 1397.59 1855.24 1398.14 1854.95C1398.73 1854.64 1399.28 1854.25 1399.76 1853.79C1400.33 1853.28 1400.79 1852.66 1401.12 1851.97C1401.47 1851.17 1401.53 1850.27 1401.28 1849.43L1397.83 1835.17C1397.78 1834.85 1397.61 1834.56 1397.36 1834.35C1397.11 1834.14 1396.79 1834.02 1396.46 1834.02C1396.4 1834.04 1396.14 1834.05 1395.68 1834.05L1394.2 1834.12L1392.71 1834.2C1392.25 1834.23 1391.98 1834.24 1391.91 1834.23C1391.6 1834.23 1391.43 1834.14 1391.38 1833.95C1391.34 1833.77 1391.45 1833.54 1391.72 1833.29C1392.79 1832.35 1393.83 1831.35 1394.86 1830.3C1395.88 1829.24 1396.86 1828.16 1397.81 1827.05C1398.73 1825.95 1399.63 1824.83 1400.49 1823.71C1401.36 1822.59 1402.14 1821.5 1402.83 1820.46C1402.89 1820.36 1402.97 1820.27 1403.07 1820.21C1403.16 1820.15 1403.27 1820.12 1403.39 1820.12C1403.63 1820.1 1403.77 1820.26 1403.85 1820.57L1410.21 1847.24Z" fill="#FABA02"/>
<path d="M2039.63 1450.09C2031.49 1521.44 1983.81 1576.73 1926.85 1587.83L1926.26 1592.95L1893.27 1589.19L1892.42 1589.09C1821.88 1580.31 1772.7 1505 1782.61 1420.33C1792.53 1335.66 1857.38 1273.54 1928.05 1281.22L1928.96 1281.32L1961.95 1285.09L1961.36 1290.24C2014.34 1314.01 2047.89 1378.72 2039.63 1450.09Z" fill="#F29200"/>
<path d="M2076.11 1454.3C2085.94 1369.29 2033.36 1293.38 1958.68 1284.74C1883.99 1276.1 1815.48 1338.02 1805.65 1423.02C1795.82 1508.03 1848.39 1583.95 1923.08 1592.58C1997.76 1601.22 2066.28 1539.31 2076.11 1454.3Z" fill="#FFD130"/>
<path d="M2056.51 1452.03C2064.79 1380.45 2020.52 1316.53 1957.63 1309.26C1894.74 1301.98 1837.05 1354.11 1828.77 1425.69C1820.49 1497.27 1864.76 1561.2 1927.65 1568.47C1990.54 1575.74 2048.23 1523.61 2056.51 1452.03Z" fill="#FABA02"/>
<path d="M2056.53 1452.05C2048.36 1523.65 1990.54 1575.74 1927.65 1568.48C1924.97 1568.17 1922.31 1567.75 1919.68 1567.22C1979.39 1569.41 2032.6 1518.7 2040.51 1450.19C2048.42 1381.68 2008.23 1320.16 1949.62 1308.63C1952.3 1308.73 1954.98 1308.93 1957.67 1309.23C2020.42 1316.52 2064.82 1380.46 2056.53 1452.05Z" fill="#F29200"/>
<path d="M1948.55 1479.58C1948.01 1482.84 1948.69 1486.18 1950.47 1488.97C1952.1 1491.41 1954.18 1493.51 1956.6 1495.17C1958.78 1496.67 1961.13 1497.89 1963.61 1498.8C1965.9 1499.64 1967.4 1500.13 1968.11 1500.3C1968.69 1500.47 1969.2 1500.82 1969.56 1501.3C1969.69 1501.47 1969.78 1501.68 1969.82 1501.9C1969.85 1502.12 1969.84 1502.35 1969.77 1502.56C1969.6 1503 1969.29 1503.37 1968.88 1503.61C1968.35 1503.91 1967.73 1504.02 1967.13 1503.91L1888.27 1494.92C1887.66 1494.89 1887.08 1494.64 1886.63 1494.22C1886.29 1493.9 1886.07 1493.47 1886.01 1493.01C1885.99 1492.79 1886.03 1492.57 1886.11 1492.37C1886.19 1492.17 1886.32 1491.99 1886.49 1491.85C1886.96 1491.47 1887.54 1491.24 1888.15 1491.22C1888.87 1491.3 1890.46 1491.06 1892.88 1490.8C1895.52 1490.37 1898.1 1489.6 1900.55 1488.52C1903.29 1487.47 1905.81 1485.9 1907.95 1483.89C1910.37 1481.63 1911.86 1478.54 1912.12 1475.24L1918.33 1420.79C1918.53 1419.55 1918.28 1418.29 1917.62 1417.22C1916.97 1416.15 1915.96 1415.35 1914.77 1414.97C1914.49 1414.94 1913.47 1414.63 1911.69 1414.05L1906.06 1412.35L1900.36 1410.65C1898.6 1410.17 1897.59 1409.83 1897.29 1409.73C1896.15 1409.35 1895.61 1408.78 1895.69 1408.05C1895.78 1407.33 1896.48 1406.71 1897.82 1406.16C1903.08 1404.28 1908.34 1402.16 1913.6 1399.81C1918.85 1397.46 1923.99 1395.01 1929.02 1392.44C1934.05 1389.81 1938.89 1387.08 1943.54 1384.26C1948.19 1381.44 1952.56 1378.64 1956.65 1375.86C1957 1375.58 1957.42 1375.38 1957.86 1375.3C1958.31 1375.22 1958.76 1375.25 1959.19 1375.38C1960.08 1375.68 1960.45 1376.39 1960.31 1377.58L1948.55 1479.58Z" fill="#F29200"/>
<path d="M1960.25 1474.36C1959.74 1477.49 1960.34 1480.7 1961.95 1483.43C1963.44 1485.78 1965.37 1487.82 1967.64 1489.43C1969.59 1490.86 1971.72 1492.04 1973.98 1492.92C1976.06 1493.7 1977.44 1494.17 1978.09 1494.34C1978.62 1494.51 1979.09 1494.86 1979.41 1495.32C1979.52 1495.49 1979.6 1495.69 1979.63 1495.9C1979.66 1496.11 1979.65 1496.32 1979.59 1496.52C1979.44 1496.94 1979.15 1497.3 1978.77 1497.54C1978.3 1497.84 1977.73 1497.96 1977.18 1497.87L1905.23 1489.66C1904.67 1489.63 1904.14 1489.39 1903.75 1488.98C1903.44 1488.66 1903.26 1488.25 1903.21 1487.81C1903.2 1487.6 1903.23 1487.39 1903.31 1487.19C1903.39 1487 1903.51 1486.82 1903.66 1486.68C1904.07 1486.3 1904.6 1486.07 1905.17 1486.03C1905.82 1486.1 1907.25 1485.88 1909.48 1485.59C1911.89 1485.26 1914.24 1484.61 1916.48 1483.66C1919.05 1482.61 1921.38 1481.07 1923.36 1479.13C1925.56 1476.83 1926.88 1473.84 1927.09 1470.67L1933.13 1417.76C1933.33 1416.6 1933.12 1415.39 1932.53 1414.37C1931.94 1413.34 1931 1412.55 1929.89 1412.14C1929.66 1412.12 1928.76 1411.82 1927.19 1411.26L1922.05 1409.66L1916.86 1408.05C1915.26 1407.58 1914.34 1407.28 1914.1 1407.16C1913.06 1406.79 1912.58 1406.25 1912.66 1405.56C1912.73 1404.87 1913.38 1404.24 1914.62 1403.72C1919.43 1401.85 1924.24 1399.76 1929.05 1397.44C1933.85 1395.12 1938.56 1392.66 1943.17 1390.04C1947.71 1387.44 1952.15 1384.76 1956.49 1382.01C1960.84 1379.26 1964.85 1376.54 1968.53 1373.84C1968.84 1373.57 1969.22 1373.38 1969.63 1373.3C1970.03 1373.21 1970.45 1373.24 1970.85 1373.37C1971.68 1373.62 1971.98 1374.33 1971.85 1375.49L1960.25 1474.36Z" fill="#FABA02"/>
<path d="M358.008 1981.05C349.87 2052.4 302.189 2107.69 245.226 2118.79L244.642 2123.92L211.653 2120.15L210.805 2120.06C140.259 2111.28 91.083 2035.97 100.995 1951.29C110.907 1866.62 175.756 1804.51 246.427 1812.18L247.338 1812.29L280.327 1816.05L279.74 1821.2C332.726 1844.97 366.274 1909.69 358.008 1981.05Z" fill="#F29200"/>
<path d="M394.489 1985.27C404.32 1900.26 351.744 1824.34 277.059 1815.71C202.373 1807.07 133.859 1868.98 124.028 1953.99C114.198 2039 166.773 2114.91 241.459 2123.55C316.145 2132.18 384.659 2070.27 394.489 1985.27Z" fill="#FFD130"/>
<path d="M374.891 1983C383.169 1911.42 338.898 1847.49 276.01 1840.22C213.121 1832.95 155.429 1885.08 147.151 1956.66C138.874 2028.24 183.144 2092.16 246.033 2099.43C308.922 2106.71 366.614 2054.58 374.891 1983Z" fill="#FABA02"/>
<path d="M374.907 1983.01C366.74 2054.61 308.921 2106.71 246.033 2099.44C243.352 2099.14 240.695 2098.72 238.061 2098.18C297.772 2100.38 350.978 2049.67 358.887 1981.15C366.796 1912.64 326.614 1851.12 267.998 1839.6C270.682 1839.69 273.365 1839.89 276.046 1840.2C338.805 1847.48 383.199 1911.43 374.907 1983.01Z" fill="#F29200"/>
<path d="M266.929 2010.54C266.386 2013.8 267.07 2017.15 268.85 2019.93C270.482 2022.37 272.564 2024.48 274.985 2026.14C277.158 2027.63 279.511 2028.85 281.987 2029.77C284.279 2030.6 285.782 2031.09 286.494 2031.27C287.07 2031.44 287.576 2031.78 287.94 2032.26C288.074 2032.44 288.162 2032.65 288.198 2032.87C288.234 2033.09 288.216 2033.31 288.146 2033.52C287.978 2033.96 287.667 2034.33 287.263 2034.57C286.734 2034.88 286.112 2034.99 285.509 2034.88L206.65 2025.88C206.038 2025.86 205.456 2025.61 205.011 2025.19C204.67 2024.87 204.449 2024.44 204.386 2023.97C204.37 2023.75 204.406 2023.54 204.49 2023.34C204.573 2023.14 204.703 2022.96 204.867 2022.82C205.34 2022.43 205.923 2022.21 206.532 2022.18C207.254 2022.26 208.84 2022.03 211.258 2021.76C213.902 2021.33 216.481 2020.57 218.933 2019.49C221.673 2018.43 224.186 2016.86 226.335 2014.86C228.753 2012.59 230.239 2009.5 230.506 2006.2L236.715 1951.75C236.912 1950.52 236.66 1949.25 236.005 1948.18C235.351 1947.12 234.337 1946.32 233.146 1945.93C232.874 1945.9 231.848 1945.6 230.069 1945.01L224.437 1943.32L218.743 1941.62C216.985 1941.13 215.973 1940.79 215.666 1940.69C214.532 1940.31 213.993 1939.74 214.075 1939.02C214.157 1938.29 214.865 1937.67 216.2 1937.13C221.465 1935.24 226.724 1933.13 231.978 1930.78C237.232 1928.43 242.372 1925.97 247.396 1923.4C252.428 1920.77 257.269 1918.05 261.919 1915.22C266.569 1912.4 270.941 1909.6 275.035 1906.82C275.385 1906.54 275.801 1906.35 276.243 1906.27C276.686 1906.18 277.142 1906.21 277.572 1906.35C278.461 1906.64 278.826 1907.35 278.69 1908.54L266.929 2010.54Z" fill="#F29200"/>
<path d="M278.632 2005.32C278.118 2008.45 278.721 2011.66 280.334 2014.4C281.819 2016.75 283.749 2018.78 286.016 2020.39C287.971 2021.83 290.105 2023 292.365 2023.88C294.44 2024.66 295.818 2025.14 296.467 2025.31C297.004 2025.48 297.469 2025.82 297.788 2026.29C297.904 2026.46 297.981 2026.66 298.013 2026.86C298.044 2027.07 298.029 2027.28 297.969 2027.48C297.818 2027.9 297.53 2028.26 297.153 2028.5C296.68 2028.81 296.11 2028.93 295.556 2028.83L223.609 2020.63C223.047 2020.59 222.518 2020.35 222.126 2019.95C221.825 2019.62 221.637 2019.21 221.592 2018.77C221.579 2018.56 221.612 2018.35 221.689 2018.16C221.767 2017.96 221.886 2017.79 222.039 2017.65C222.454 2017.27 222.984 2017.03 223.546 2016.99C224.206 2017.07 225.631 2016.85 227.86 2016.56C230.268 2016.22 232.622 2015.57 234.86 2014.62C237.427 2013.57 239.765 2012.03 241.742 2010.09C243.94 2007.8 245.261 2004.81 245.475 2001.64L251.509 1948.73C251.714 1947.56 251.501 1946.36 250.908 1945.33C250.316 1944.3 249.381 1943.52 248.268 1943.11C248.037 1943.08 247.137 1942.79 245.567 1942.23L240.435 1940.62L235.24 1939.01C233.639 1938.54 232.718 1938.25 232.477 1938.12C231.437 1937.75 230.957 1937.22 231.036 1936.53C231.115 1935.84 231.759 1935.21 232.997 1934.68C237.814 1932.81 242.625 1930.72 247.43 1928.4C252.235 1926.09 256.94 1923.62 261.546 1921.01C266.086 1918.4 270.529 1915.73 274.874 1912.98C279.219 1910.23 283.232 1907.5 286.914 1904.8C287.225 1904.53 287.602 1904.34 288.008 1904.26C288.414 1904.18 288.834 1904.2 289.227 1904.34C290.057 1904.59 290.359 1905.29 290.226 1906.45L278.632 2005.32Z" fill="#FABA02"/>
<path d="M1811 623.979C1818.11 675.631 1794.52 723.096 1756.45 741.152L1756.96 744.859L1733.08 748.146L1732.46 748.231C1681.26 754.745 1633.13 710.618 1624.87 649.276C1616.61 587.933 1651.05 532.578 1702.14 525.267L1702.8 525.176L1726.68 521.889L1727.2 525.619C1768.74 532.809 1803.98 572.292 1811 623.979Z" fill="#F29200"/>
<path d="M1837.42 620.38C1829.05 558.817 1778.41 514.876 1724.32 522.234C1670.24 529.593 1633.18 585.464 1641.55 647.027C1649.93 708.59 1700.57 752.531 1754.65 745.173C1808.74 737.814 1845.8 681.943 1837.42 620.38Z" fill="#FFD130"/>
<path d="M1823.23 622.308C1816.18 570.47 1773.54 533.47 1727.99 539.666C1682.45 545.862 1651.25 592.908 1658.3 644.747C1665.35 696.585 1707.99 733.585 1753.53 727.389C1799.08 721.193 1830.28 674.147 1823.23 622.308Z" fill="#FABA02"/>
<path d="M1823.24 622.318C1830.38 674.151 1799.08 721.194 1753.53 727.393C1751.59 727.661 1749.65 727.843 1747.7 727.942C1790.1 718.746 1818.4 673.506 1811.64 623.892C1804.88 574.278 1765.55 538.232 1722.25 540.669C1724.15 540.253 1726.08 539.911 1728.02 539.644C1773.47 533.48 1816.2 570.472 1823.24 622.318Z" fill="#F29200"/>
<path d="M1752.24 661.105C1752.45 663.495 1753.53 665.724 1755.28 667.361C1756.87 668.784 1758.71 669.891 1760.71 670.623C1762.51 671.286 1764.39 671.72 1766.29 671.918C1768.05 672.092 1769.2 672.166 1769.73 672.162C1770.17 672.177 1770.59 672.331 1770.93 672.6C1771.05 672.702 1771.15 672.833 1771.22 672.981C1771.28 673.13 1771.31 673.291 1771.3 673.453C1771.26 673.791 1771.11 674.106 1770.87 674.347C1770.55 674.66 1770.13 674.849 1769.69 674.88L1712.6 682.738C1712.17 682.828 1711.71 682.759 1711.32 682.543C1711.03 682.378 1710.79 682.115 1710.67 681.799C1710.62 681.65 1710.6 681.49 1710.62 681.334C1710.65 681.178 1710.71 681.03 1710.8 680.901C1711.06 680.545 1711.43 680.283 1711.85 680.153C1712.38 680.081 1713.45 679.632 1715.1 679.01C1716.88 678.232 1718.56 677.23 1720.09 676.029C1721.83 674.793 1723.31 673.236 1724.47 671.441C1725.76 669.411 1726.25 666.972 1725.84 664.6L1720.42 625.185C1720.33 624.28 1719.93 623.436 1719.27 622.803C1718.62 622.17 1717.77 621.792 1716.86 621.735C1716.66 621.762 1715.88 621.73 1714.53 621.639L1710.26 621.461L1705.95 621.29C1704.63 621.263 1703.85 621.207 1703.62 621.193C1702.75 621.127 1702.27 620.823 1702.2 620.3C1702.13 619.777 1702.51 619.214 1703.36 618.588C1706.72 616.317 1710.04 613.883 1713.31 611.285C1716.58 608.687 1719.76 606.033 1722.83 603.323C1725.9 600.568 1728.81 597.78 1731.57 594.959C1734.34 592.137 1736.91 589.381 1739.29 586.689C1739.48 586.427 1739.74 586.218 1740.04 586.08C1740.33 585.942 1740.66 585.88 1740.99 585.899C1741.67 585.945 1742.05 586.379 1742.17 587.243L1752.24 661.105Z" fill="#F29200"/>
<path d="M1759.54 655.327C1759.74 657.622 1760.74 659.772 1762.37 661.403C1763.83 662.789 1765.56 663.874 1767.44 664.598C1769.07 665.257 1770.79 665.699 1772.53 665.913C1774.13 666.087 1775.19 666.174 1775.68 666.176C1776.08 666.199 1776.47 666.358 1776.78 666.627C1776.89 666.728 1776.98 666.853 1777.04 666.993C1777.1 667.133 1777.13 667.285 1777.12 667.437C1777.09 667.76 1776.96 668.065 1776.73 668.302C1776.46 668.601 1776.08 668.786 1775.67 668.819L1723.58 675.988C1723.18 676.066 1722.77 675.991 1722.42 675.778C1722.15 675.605 1721.94 675.348 1721.83 675.047C1721.79 674.903 1721.77 674.749 1721.79 674.599C1721.81 674.448 1721.86 674.303 1721.94 674.175C1722.17 673.832 1722.5 673.575 1722.89 673.442C1723.36 673.377 1724.33 672.966 1725.84 672.363C1727.48 671.694 1729.02 670.812 1730.42 669.74C1732.04 668.542 1733.4 667.039 1734.44 665.316C1735.58 663.308 1735.97 660.965 1735.55 658.698L1730.28 620.397C1730.21 619.539 1729.85 618.731 1729.24 618.115C1728.64 617.499 1727.84 617.114 1726.99 617.027C1726.82 617.049 1726.13 617.005 1724.93 616.893L1721.03 616.688L1717.09 616.489C1715.88 616.447 1715.17 616.404 1714.98 616.361C1714.19 616.286 1713.75 615.998 1713.68 615.497C1713.61 614.997 1713.95 614.44 1714.73 613.847C1717.78 611.665 1720.79 609.328 1723.75 606.834C1726.72 604.341 1729.58 601.76 1732.35 599.092C1735.08 596.446 1737.72 593.765 1740.28 591.048C1742.84 588.332 1745.18 585.693 1747.28 583.132C1747.45 582.884 1747.68 582.685 1747.95 582.554C1748.22 582.423 1748.52 582.366 1748.82 582.387C1749.45 582.416 1749.79 582.856 1749.91 583.698L1759.54 655.327Z" fill="#FABA02"/>
<path d="M558.493 1058.94C550.301 1110.43 513.942 1149.01 472.269 1155.23L471.681 1158.93L447.874 1155.14L447.262 1155.04C396.376 1146.41 363.124 1090.21 373.032 1029.11C382.939 968.012 431.97 925.041 482.982 932.879L483.64 932.983L507.447 936.771L506.855 940.49C544.524 959.432 566.78 1007.45 558.493 1058.94Z" fill="#F29200"/>
<path d="M584.819 1063.17C594.679 1001.83 558.981 945.078 505.087 936.416C451.193 927.754 399.511 970.461 389.652 1031.8C379.793 1093.15 415.49 1149.9 469.384 1158.56C523.278 1167.22 574.96 1124.51 584.819 1063.17Z" fill="#FFD130"/>
<path d="M570.677 1060.89C578.979 1009.24 548.92 961.456 503.539 954.162C458.158 946.869 414.64 982.829 406.338 1034.48C398.036 1086.14 428.095 1133.92 473.476 1141.21C518.857 1148.51 562.376 1112.55 570.677 1060.89Z" fill="#FABA02"/>
<path d="M570.688 1060.91C562.466 1112.58 518.856 1148.51 473.475 1141.22C471.541 1140.91 469.627 1140.52 467.733 1140.05C510.973 1143.56 551.192 1108.49 559.128 1059.05C567.064 1009.61 539.893 963.694 497.748 953.454C499.692 953.609 501.631 953.84 503.566 954.148C548.853 961.446 579 1009.25 570.688 1060.91Z" fill="#F29200"/>
<path d="M491.485 1077.41C490.987 1079.76 491.376 1082.21 492.578 1084.28C493.683 1086.1 495.125 1087.7 496.828 1088.98C498.356 1090.13 500.023 1091.1 501.79 1091.84C503.426 1092.52 504.501 1092.92 505.011 1093.07C505.423 1093.21 505.78 1093.48 506.028 1093.84C506.119 1093.97 506.177 1094.12 506.195 1094.29C506.214 1094.45 506.194 1094.61 506.137 1094.76C506.001 1095.07 505.763 1095.33 505.463 1095.49C505.07 1095.7 504.615 1095.76 504.181 1095.66L447.271 1086.6C446.828 1086.56 446.414 1086.37 446.105 1086.05C445.868 1085.8 445.721 1085.48 445.69 1085.14C445.686 1084.99 445.719 1084.83 445.786 1084.69C445.853 1084.54 445.953 1084.42 446.077 1084.32C446.432 1084.06 446.862 1083.91 447.304 1083.91C447.826 1083.99 448.984 1083.88 450.746 1083.76C452.677 1083.53 454.573 1083.06 456.386 1082.36C458.407 1081.68 460.28 1080.62 461.903 1079.24C463.729 1077.67 464.907 1075.48 465.206 1073.09L471.458 1033.8C471.64 1032.91 471.498 1031.98 471.057 1031.19C470.617 1030.39 469.907 1029.78 469.056 1029.46C468.859 1029.43 468.125 1029.18 466.853 1028.7L462.823 1027.29L458.748 1025.87C457.488 1025.46 456.765 1025.18 456.545 1025.1C455.735 1024.79 455.362 1024.36 455.445 1023.83C455.528 1023.31 456.061 1022.89 457.047 1022.53C460.926 1021.34 464.809 1019.97 468.695 1018.43C472.582 1016.9 476.388 1015.28 480.115 1013.58C483.849 1011.83 487.448 1010.01 490.911 1008.11C494.375 1006.22 497.636 1004.32 500.694 1002.44C500.957 1002.25 501.265 1002.12 501.589 1002.07C501.912 1002.03 502.242 1002.06 502.549 1002.18C503.185 1002.42 503.427 1002.94 503.29 1003.81L491.485 1077.41Z" fill="#F29200"/>
<path d="M500.142 1074C499.669 1076.25 500.002 1078.6 501.085 1080.64C502.087 1082.39 503.421 1083.93 505.014 1085.17C506.385 1086.27 507.896 1087.19 509.506 1087.9C510.987 1088.53 511.971 1088.92 512.436 1089.07C512.82 1089.21 513.146 1089.47 513.363 1089.82C513.442 1089.95 513.491 1090.09 513.507 1090.25C513.523 1090.4 513.506 1090.55 513.456 1090.69C513.333 1090.99 513.113 1091.25 512.831 1091.41C512.479 1091.61 512.061 1091.68 511.662 1091.59L459.741 1083.33C459.334 1083.29 458.959 1083.1 458.687 1082.79C458.479 1082.55 458.356 1082.24 458.338 1081.92C458.335 1081.77 458.366 1081.62 458.428 1081.48C458.49 1081.34 458.582 1081.22 458.698 1081.12C459.011 1080.86 459.403 1080.71 459.812 1080.69C460.288 1080.77 461.329 1080.66 462.955 1080.52C464.712 1080.35 466.44 1079.96 468.094 1079.34C469.99 1078.66 471.735 1077.62 473.231 1076.27C474.899 1074.68 475.954 1072.55 476.211 1070.26L482.286 1032.08C482.471 1031.24 482.356 1030.36 481.959 1029.6C481.562 1028.83 480.909 1028.23 480.115 1027.9C479.948 1027.87 479.305 1027.63 478.184 1027.17L474.513 1025.85L470.797 1024.51C469.651 1024.12 468.992 1023.87 468.821 1023.78C468.079 1023.47 467.748 1023.07 467.827 1022.57C467.907 1022.07 468.394 1021.64 469.309 1021.3C472.863 1020.1 476.42 1018.73 479.979 1017.21C483.539 1015.68 487.031 1014.04 490.455 1012.29C493.832 1010.55 497.14 1008.76 500.38 1006.9C503.62 1005.04 506.618 1003.2 509.375 1001.36C509.61 1001.17 509.889 1001.04 510.186 1001C510.483 1000.95 510.787 1000.98 511.068 1001.09C511.662 1001.3 511.858 1001.82 511.725 1002.66L500.142 1074Z" fill="#FABA02"/>
<path d="M468.769 530.757L489.72 494.469L529.949 483.69L559.249 593.038L468.769 530.757Z" fill="#00C3FF"/>
<path d="M606.394 493.591L570.106 472.64L529.877 483.42L559.176 592.768L606.394 493.591Z" fill="#00C3FF"/>
<path d="M468.769 530.757L559.041 592.804L507.783 520.303L468.769 530.757Z" fill="#007DB7"/>
<path d="M606.394 493.591L559.239 592.462L567.38 504.045L606.394 493.591Z" fill="#89E3FF"/>
<path d="M489.72 494.469L468.769 530.757L507.783 520.303L489.72 494.469Z" fill="#00AAF0"/>
<path d="M570.106 472.64L606.394 493.591L567.38 504.045L570.106 472.64Z" fill="#C2F0FF"/>
<path d="M567.317 504.352L507.783 520.304L529.949 483.69L567.317 504.352Z" fill="#89E3FF"/>
<path d="M1775.13 1774.14L1848.33 1731.88L1929.48 1753.63L1870.38 1974.2L1775.13 1774.14Z" fill="#00C3FF"/>
<path d="M2053.03 1848.02L2010.77 1774.83L1929.62 1753.08L1870.52 1973.65L2053.03 1848.02Z" fill="#00C3FF"/>
<path d="M1775.13 1774.14L1870.25 1973.58L1853.83 1795.23L1775.13 1774.14Z" fill="#007DB7"/>
<path d="M2053.03 1848.02L1870.94 1973.18L1974.34 1826.94L2053.03 1848.02Z" fill="#89E3FF"/>
<path d="M1848.33 1731.88L1775.13 1774.14L1853.83 1795.23L1848.33 1731.88Z" fill="#00AAF0"/>
<path d="M2010.77 1774.83L2053.03 1848.02L1974.34 1826.94L2010.77 1774.83Z" fill="#C2F0FF"/>
<path d="M1973.92 1827.41L1853.83 1795.23L1929.48 1753.63L1973.92 1827.41Z" fill="#89E3FF"/>
<path d="M331.738 1540.72L374.841 1468.02L456.235 1447.21L512.788 1668.45L331.738 1540.72Z" fill="#00C3FF"/>
<path d="M610.195 1468.96L537.489 1425.86L456.095 1446.67L512.648 1667.91L610.195 1468.96Z" fill="#00C3FF"/>
<path d="M331.738 1540.72L512.375 1667.97L410.674 1520.55L331.738 1540.72Z" fill="#007DB7"/>
<path d="M610.195 1468.96L512.782 1667.29L531.26 1489.14L610.195 1468.96Z" fill="#89E3FF"/>
<path d="M374.841 1468.02L331.738 1540.72L410.674 1520.55L374.841 1468.02Z" fill="#00AAF0"/>
<path d="M537.489 1425.86L610.195 1468.96L531.259 1489.14L537.489 1425.86Z" fill="#C2F0FF"/>
<path d="M531.125 1489.76L410.674 1520.55L456.235 1447.21L531.125 1489.76Z" fill="#89E3FF"/>
<path d="M964.5 1911.69L1001.64 1869.51L1057.39 1865.97L1067.02 2017.5L964.5 1911.69Z" fill="#00C3FF"/>
<path d="M1155.29 1899.2L1113.11 1862.06L1057.37 1865.6L1066.99 2017.13L1155.29 1899.2Z" fill="#00C3FF"/>
<path d="M964.5 1911.69L1066.8 2017.14L1018.57 1908.26L964.5 1911.69Z" fill="#007DB7"/>
<path d="M1155.29 1899.2L1067.15 2016.74L1101.23 1902.63L1155.29 1899.2Z" fill="#89E3FF"/>
<path d="M1001.64 1869.51L964.5 1911.69L1018.57 1908.26L1001.64 1869.51Z" fill="#00AAF0"/>
<path d="M1113.11 1862.06L1155.29 1899.2L1101.23 1902.63L1113.11 1862.06Z" fill="#C2F0FF"/>
<path d="M1101.07 1903.02L1018.57 1908.26L1057.39 1865.97L1101.07 1903.02Z" fill="#89E3FF"/>
<path d="M1965.31 398.81L1996.42 376.024L2034.3 381.877L2018.4 484.843L1965.31 398.81Z" fill="#00C3FF"/>
<path d="M2095.01 418.589L2072.22 387.476L2034.34 381.623L2018.43 484.59L2095.01 418.589Z" fill="#00C3FF"/>
<path d="M1965.31 398.81L2018.31 484.57L2002.05 404.486L1965.31 398.81Z" fill="#007DB7"/>
<path d="M2095.01 418.589L2018.6 484.355L2058.27 412.913L2095.01 418.589Z" fill="#89E3FF"/>
<path d="M1996.42 376.024L1965.31 398.81L2002.05 404.486L1996.42 376.024Z" fill="#00AAF0"/>
<path d="M2072.22 387.476L2095.01 418.589L2058.27 412.913L2072.22 387.476Z" fill="#C2F0FF"/>
<path d="M2058.11 413.147L2002.05 404.486L2034.3 381.877L2058.11 413.147Z" fill="#89E3FF"/>
</g>
<defs>
<linearGradient id="paint0_linear_101_189" x1="1152.5" y1="1152" x2="1152" y2="2072" gradientUnits="userSpaceOnUse">
<stop stop-color="#FDCF1C" stop-opacity="0.42"/>
<stop offset="1" stop-color="#FDCF1C" stop-opacity="0"/>
</linearGradient>
<linearGradient id="paint1_linear_101_189" x1="1152" y1="1151.5" x2="2072" y2="1152" gradientUnits="userSpaceOnUse">
<stop stop-color="#FDCF1C" stop-opacity="0.42"/>
<stop offset="1" stop-color="#FDCF1C" stop-opacity="0"/>
</linearGradient>
<linearGradient id="paint2_linear_101_189" x1="1151.5" y1="1152" x2="1152" y2="232" gradientUnits="userSpaceOnUse">
<stop stop-color="#FDCF1C" stop-opacity="0.42"/>
<stop offset="1" stop-color="#FDCF1C" stop-opacity="0"/>
</linearGradient>
<linearGradient id="paint3_linear_101_189" x1="1152" y1="1151.5" x2="232" y2="1151" gradientUnits="userSpaceOnUse">
<stop stop-color="#FDCF1C" stop-opacity="0.42"/>
<stop offset="1" stop-color="#FDCF1C" stop-opacity="0"/>
</linearGradient>
<linearGradient id="paint4_linear_101_189" x1="1152.35" y1="1152.35" x2="501.462" y2="1802.54" gradientUnits="userSpaceOnUse">
<stop stop-color="#FDCF1C" stop-opacity="0.42"/>
<stop offset="1" stop-color="#FDCF1C" stop-opacity="0"/>
</linearGradient>
<linearGradient id="paint5_linear_101_189" x1="1152.35" y1="1151.65" x2="1802.54" y2="1802.54" gradientUnits="userSpaceOnUse">
<stop stop-color="#FDCF1C" stop-opacity="0.42"/>
<stop offset="1" stop-color="#FDCF1C" stop-opacity="0"/>
</linearGradient>
<linearGradient id="paint6_linear_101_189" x1="1151.65" y1="1151.65" x2="1802.54" y2="501.462" gradientUnits="userSpaceOnUse">
<stop stop-color="#FDCF1C" stop-opacity="0.42"/>
<stop offset="1" stop-color="#FDCF1C" stop-opacity="0"/>
</linearGradient>
<linearGradient id="paint7_linear_101_189" x1="1152.35" y1="1151.65" x2="502.169" y2="500.755" gradientUnits="userSpaceOnUse">
<stop stop-color="#FDCF1C" stop-opacity="0.42"/>
<stop offset="1" stop-color="#FDCF1C" stop-opacity="0"/>
</linearGradient>
<clipPath id="clip0_101_189">
<rect width="2304" height="2304" fill="white"/>
</clipPath>
</defs>
</svg>
