<?xml version="1.0" encoding="UTF-8" standalone="no"?>
<!DOCTYPE svg PUBLIC "-//W3C//DTD SVG 1.1//EN" "http://www.w3.org/Graphics/SVG/1.1/DTD/svg11.dtd">
<svg width="100%" height="100%" viewBox="0 0 1080 1080" version="1.1" xmlns="http://www.w3.org/2000/svg" xmlns:xlink="http://www.w3.org/1999/xlink" xml:space="preserve" xmlns:serif="http://www.serif.com/" style="fill-rule:evenodd;clip-rule:evenodd;stroke-linecap:round;stroke-linejoin:round;stroke-miterlimit:1.5;">
    <rect id="Artboard1" x="0" y="0" width="1080" height="1080" style="fill:none;"/>
    <g id="Artboard11" serif:id="Artboard1">
        <g transform="matrix(1,0,0,1,540,540)">
            <g transform="matrix(1,0,0,1,-540,-540)">
                <g>
                    <g>
                        <path d="M806.674,662.226C806.771,764.56 775.555,868.099 693,963.2C647.7,987.9 595.8,1001.9 540.6,1002L540,1002C363,1002 219.5,858.5 219.5,681.5C219.5,541.6 419.5,245.6 503.5,127.9C524.7,98.1 538.6,79.8 539.9,78.2L540,78C540,78 540.6,78.8 541.8,80.3C555.5,98.4 645.4,220.2 726.2,355.6C796.8,473.8 860.5,602.5 860.5,681.5C860.5,803.1 792.8,908.9 693,963.2C775.572,868.128 806.784,764.568 806.674,662.226Z" style="fill:rgb(0,128,224);fill-rule:nonzero;"/>
                    </g>
                    <g>
                        <g>
                            <ellipse cx="407.7" cy="675.2" rx="40.4" ry="76.8" style="fill:white;"/>
                            <ellipse cx="402.1" cy="692.5" rx="16.9" ry="33.1" style="fill:rgb(0,53,86);"/>
                            <ellipse cx="676.3" cy="675.2" rx="40.4" ry="76.8" style="fill:white;"/>
                            <ellipse cx="670.7" cy="692.5" rx="16.9" ry="33.1" style="fill:rgb(0,53,86);"/>
                        </g>
                    </g>
                    <path d="M513.1,188.8C513.1,188.8 375.2,380.4 366.7,425.5" style="fill:white;fill-rule:nonzero;"/>
                    <g transform="matrix(0.919311,0,0,1,37.8364,0)">
                        <path d="M460.829,644.818L392.249,644.818L413.277,784.612L481.857,784.612L460.829,644.818Z" style="fill:white;fill-opacity:0.56;"/>
                    </g>
                    <rect x="268.105" y="644.818" width="248.287" height="139.793" style="fill:url(#_Linear1);stroke:url(#_Linear2);stroke-width:13px;"/>
                </g>
            </g>
        </g>
    </g>
    <defs>
        <linearGradient id="_Linear1" x1="0" y1="0" x2="1" y2="0" gradientUnits="userSpaceOnUse" gradientTransform="matrix(248.287,139.793,-139.793,248.287,268.105,644.818)"><stop offset="0" style="stop-color:white;stop-opacity:0.56"/><stop offset="1" style="stop-color:rgb(179,179,179);stop-opacity:0.56"/></linearGradient>
        <linearGradient id="_Linear2" x1="0" y1="0" x2="1" y2="0" gradientUnits="userSpaceOnUse" gradientTransform="matrix(248.287,0,0,139.793,268.105,714.715)"><stop offset="0" style="stop-color:rgb(255,55,55);stop-opacity:1"/><stop offset="1" style="stop-color:rgb(139,35,255);stop-opacity:1"/></linearGradient>
    </defs>
</svg>
