<?xml version="1.0" encoding="UTF-8" standalone="no"?>
<!DOCTYPE svg PUBLIC "-//W3C//DTD SVG 1.1//EN" "http://www.w3.org/Graphics/SVG/1.1/DTD/svg11.dtd">
<svg width="100%" height="100%" viewBox="0 0 1080 1080" version="1.1" xmlns="http://www.w3.org/2000/svg" xmlns:xlink="http://www.w3.org/1999/xlink" xml:space="preserve" xmlns:serif="http://www.serif.com/" style="fill-rule:evenodd;clip-rule:evenodd;stroke-linejoin:round;stroke-miterlimit:2;">
    <rect id="Artboard1" x="0" y="0" width="1080" height="1080" style="fill:none;"/>
    <g id="Artboard11" serif:id="Artboard1">
        <g transform="matrix(2.00061,0,0,2.00061,-187.533,-901.786)">
            <path d="M208.332,977.009C208.332,977.009 143.375,982.11 153.732,876.78C169.786,713.524 320.678,606.698 319.67,606.218C215.408,556.523 236.646,478.194 236.646,478.194C238.251,469.629 252.131,464.689 257.821,471.374C263.511,478.058 283.337,488.75 294.523,478.194C305.709,467.638 321.175,457.26 340.388,470.608C359.601,483.957 363.655,478.194 363.655,478.194C363.91,478.519 368.308,483.54 386.922,470.608C406.135,457.26 421.6,467.638 432.787,478.194C443.973,488.75 463.798,478.058 469.489,471.374C475.179,464.689 489.059,469.629 490.664,478.194C490.664,478.194 511.902,556.523 407.64,606.218C406.632,606.698 557.524,713.524 573.577,876.78C583.935,982.11 518.978,977.009 518.978,977.009L208.332,977.009Z" style="fill:rgb(255,183,3);"/>
        </g>
        <g transform="matrix(2.00061,0,0,2.00061,-189.975,-930.577)">
            <rect x="384.793" y="626.562" width="13.268" height="110.104" style="fill:rgb(251,133,0);"/>
        </g>
        <g transform="matrix(2.00061,0,0,3.20875,-271.163,-1685.97)">
            <rect x="384.793" y="626.562" width="13.268" height="110.104" style="fill:rgb(251,133,0);"/>
        </g>
        <g transform="matrix(2.00061,0,0,1.18137,-207.447,-376.876)">
            <path d="M452.716,592.371C452.716,578.92 446.268,568 438.326,568L308.892,568C300.95,568 294.501,578.92 294.501,592.371C294.501,605.821 300.95,616.741 308.892,616.741L438.326,616.741C446.268,616.741 452.716,605.821 452.716,592.371Z" style="fill:rgb(255,138,60);"/>
        </g>
        <g transform="matrix(2.00061,0,0,2.00061,-187.533,-901.786)">
            <circle cx="349.625" cy="789.551" r="14.03" style="fill:rgb(224,63,63);"/>
        </g>
        <g transform="matrix(2.00061,0,0,2.00061,-105.006,-1031.03)">
            <circle cx="349.625" cy="789.551" r="14.03" style="fill:rgb(224,63,63);"/>
        </g>
    </g>
</svg>
