<svg width="675" height="572" viewBox="0 0 675 572" fill="none" xmlns="http://www.w3.org/2000/svg">
<path d="M187.5 30H497H514C519.6 30 521 34.6667 521 37V437.5C521 443.5 516.333 444.667 514 444.5C418 444.5 222.294 444.065 207.5 444.5C190.5 445 186 456 186 463.5V487C186 502.2 198.833 508 205 509H514C519.6 509 521 513.333 521 515.5V535.5C521 540.7 516.333 541.667 514 541.5H211.5C164.7 541.5 153.667 507.167 154 490C156.833 370.833 153.5 80 153.5 77.5C153.5 36 176 30 187.5 30Z" fill="#4FB2FF"/>
<path d="M210 412V30H187.5C162.7 30 154.5 52.3333 153.5 63.5V463L210 412Z" fill="#0183E5"/>
<rect x="183" y="434" width="330" height="86" fill="#FFF7DB"/>
<path d="M202.5 412H521V438C521 443.2 515.333 444.833 512.5 445H207.5C190.7 445 186.167 457 186 463V486C186 502.8 199.667 508.333 206.5 509H515.5C519.9 509 521 512.667 521 514.5V536C521 541.2 515.333 542.167 512.5 542H201C163.8 542 153.5 514.667 153 501V460.5C153 424.5 186 413.167 202.5 412Z" fill="#309EF2"/>
<rect x="272" y="177" width="187" height="87" rx="11" fill="#0183E5"/>
<path d="M413 30H477V109L445 88L413 109V30Z" fill="#FFDD57"/>
</svg>
